<svg width="37" height="37" viewBox="0 0 37 37" fill="none" xmlns="http://www.w3.org/2000/svg">
<path d="M36.323 18.7286C36.323 28.7405 28.2064 36.8662 18.1854 36.8662C8.16441 36.8662 0.0478516 28.7405 0.0478516 18.7286C0.0478516 8.70762 8.16441 0.591064 18.1854 0.591064C28.2064 0.591064 36.323 8.70762 36.323 18.7286Z" fill="#283544"/>
<path d="M26.6874 14.1391C26.5885 14.1968 24.2324 15.4153 24.2324 18.117C24.3434 21.1981 27.2057 22.2786 27.2547 22.2786C27.2057 22.3363 26.8226 23.7505 25.688 25.233C24.7876 26.5099 23.7882 27.7974 22.2705 27.7974C20.8269 27.7974 20.3087 26.9464 18.643 26.9464C16.8542 26.9464 16.348 27.7974 14.9785 27.7974C13.4608 27.7974 12.3874 26.441 11.4379 25.176C10.2043 23.5203 9.15577 20.9221 9.11875 18.4274C9.09381 17.1054 9.36579 15.806 10.0562 14.7022C11.0307 13.1613 12.7704 12.1152 14.6703 12.0807C16.126 12.035 17.4215 13.012 18.3099 13.012C19.1612 13.012 20.7529 12.0807 22.5538 12.0807C23.3311 12.0815 25.404 12.2997 26.6874 14.1391ZM18.1868 11.8168C17.9276 10.6095 18.643 9.4023 19.3093 8.63221C20.1606 7.7009 21.5053 7.06879 22.6648 7.06879C22.7389 8.27603 22.2697 9.46003 21.4312 10.3224C20.6789 11.2537 19.3833 11.9548 18.1868 11.8168Z" fill="white"/>
</svg>
