<svg width="40" height="35" viewBox="0 0 40 35" fill="none" xmlns="http://www.w3.org/2000/svg">
<path fill-rule="evenodd" clip-rule="evenodd" d="M26.08 2.10257C28.1 2.90657 28.718 5.70657 29.544 6.60657C30.37 7.50657 31.552 7.81257 32.206 7.81257C35.682 7.81257 38.5 10.6306 38.5 14.1046V25.6946C38.5 30.3546 34.72 34.1346 30.06 34.1346H9.94C5.278 34.1346 1.5 30.3546 1.5 25.6946V14.1046C1.5 10.6306 4.318 7.81257 7.794 7.81257C8.446 7.81257 9.628 7.50657 10.456 6.60657C11.282 5.70657 11.898 2.90657 13.918 2.10257C15.94 1.29857 24.06 1.29857 26.08 2.10257Z" stroke="#616161" stroke-width="1.5" stroke-linecap="round" stroke-linejoin="round"/>
<path d="M30.991 13H31.009" stroke="#616161" stroke-width="2" stroke-linecap="round" stroke-linejoin="round"/>
<path fill-rule="evenodd" clip-rule="evenodd" d="M26.3576 20.2559C26.3576 16.7439 23.5116 13.8979 19.9996 13.8979C16.4876 13.8979 13.6416 16.7439 13.6416 20.2559C13.6416 23.7679 16.4876 26.6139 19.9996 26.6139C23.5116 26.6139 26.3576 23.7679 26.3576 20.2559Z" stroke="#616161" stroke-width="1.5" stroke-linecap="round" stroke-linejoin="round"/>
</svg>
