<svg width="20" height="20" viewBox="0 0 20 20" fill="none" xmlns="http://www.w3.org/2000/svg">
<mask id="mask0_8_116" style="mask-type:luminance" maskUnits="userSpaceOnUse" x="5" y="0" width="10" height="9">
<path fill-rule="evenodd" clip-rule="evenodd" d="M5.21094 0H14.2729V8.3057H5.21094V0Z" fill="white"/>
</mask>
<g mask="url(#mask0_8_116)">
<path fill-rule="evenodd" clip-rule="evenodd" d="M13.5229 8.30569C13.1089 8.30569 12.7729 7.9697 12.7729 7.5557V4.52369C12.7729 2.85669 11.4179 1.49969 9.75094 1.49969C8.93994 1.52769 8.17994 1.80769 7.60594 2.37569C7.03194 2.94469 6.71394 3.70169 6.71094 4.50869V7.5557C6.71094 7.9697 6.37494 8.30569 5.96094 8.30569C5.54694 8.30569 5.21094 7.9697 5.21094 7.5557V4.52369C5.21594 3.29469 5.69094 2.16069 6.54994 1.31069C7.40794 0.459695 8.55994 0.0346948 9.75394 -0.000305176C12.2449 -0.000305176 14.2729 2.0297 14.2729 4.52369V7.5557C14.2729 7.9697 13.9369 8.30569 13.5229 8.30569Z" fill="black"/>
</g>
<mask id="mask1_8_116" style="mask-type:luminance" maskUnits="userSpaceOnUse" x="0" y="4" width="20" height="16">
<path fill-rule="evenodd" clip-rule="evenodd" d="M0 4.47461H19.4998V19.9996H0V4.47461Z" fill="white"/>
</mask>
<g mask="url(#mask1_8_116)">
<path fill-rule="evenodd" clip-rule="evenodd" d="M5.008 5.97461C3.074 5.97461 1.5 7.54661 1.5 9.47961V14.9956C1.5 16.9276 3.074 18.4996 5.008 18.4996H14.492C16.426 18.4996 18 16.9276 18 14.9956V9.47961C18 7.54661 16.426 5.97461 14.492 5.97461H5.008ZM14.492 19.9996H5.008C2.247 19.9996 0 17.7546 0 14.9956V9.47961C0 6.71961 2.247 4.47461 5.008 4.47461H14.492C17.254 4.47461 19.5 6.71961 19.5 9.47961V14.9956C19.5 17.7546 17.254 19.9996 14.492 19.9996Z" fill="black"/>
</g>
</svg>
