<svg width="24" height="24" viewBox="0 0 24 24" fill="none" xmlns="http://www.w3.org/2000/svg">
<path fill-rule="evenodd" clip-rule="evenodd" d="M0.75 5.54047C0.75 2.49362 0.785137 1.47833 5.125 1.47833C9.46486 1.47833 9.5 2.49362 9.5 5.54047C9.5 8.58732 9.51384 9.60261 5.125 9.60261C0.736159 9.60261 0.75 8.58732 0.75 5.54047Z" stroke="black" stroke-width="1.5" stroke-linecap="round" stroke-linejoin="round"/>
<path fill-rule="evenodd" clip-rule="evenodd" d="M14.5 5.54047C14.5 2.49362 14.5351 1.47833 18.875 1.47833C23.2149 1.47833 23.25 2.49362 23.25 5.54047C23.25 8.58732 23.2638 9.60261 18.875 9.60261C14.4862 9.60261 14.5 8.58732 14.5 5.54047Z" stroke="black" stroke-width="1.5" stroke-linecap="round" stroke-linejoin="round"/>
<path fill-rule="evenodd" clip-rule="evenodd" d="M0.75 18.3072C0.75 15.2603 0.785137 14.2451 5.125 14.2451C9.46486 14.2451 9.5 15.2603 9.5 18.3072C9.5 21.354 9.51384 22.3693 5.125 22.3693C0.736159 22.3693 0.75 21.354 0.75 18.3072Z" stroke="black" stroke-width="1.5" stroke-linecap="round" stroke-linejoin="round"/>
<path fill-rule="evenodd" clip-rule="evenodd" d="M14.5 18.3072C14.5 15.2603 14.5351 14.2451 18.875 14.2451C23.2149 14.2451 23.25 15.2603 23.25 18.3072C23.25 21.354 23.2638 22.3693 18.875 22.3693C14.4862 22.3693 14.5 21.354 14.5 18.3072Z" stroke="black" stroke-width="1.5" stroke-linecap="round" stroke-linejoin="round"/>
</svg>
