<svg width="18" height="16" viewBox="0 0 18 16" fill="none" xmlns="http://www.w3.org/2000/svg">
<path d="M7.33026 12.5218H1.02954" stroke="black" stroke-width="1.5" stroke-linecap="round" stroke-linejoin="round"/>
<path d="M10.1404 3.7119H16.4411" stroke="black" stroke-width="1.5" stroke-linecap="round" stroke-linejoin="round"/>
<path fill-rule="evenodd" clip-rule="evenodd" d="M5.72629 3.66265C5.72629 2.48497 4.66813 1.53003 3.36314 1.53003C2.05816 1.53003 1 2.48497 1 3.66265C1 4.84034 2.05816 5.79528 3.36314 5.79528C4.66813 5.79528 5.72629 4.84034 5.72629 3.66265Z" fill="black" stroke="black" stroke-width="1.5" stroke-linecap="round" stroke-linejoin="round"/>
<path fill-rule="evenodd" clip-rule="evenodd" d="M17 12.4863C17 11.3086 15.9426 10.3536 14.6376 10.3536C13.3318 10.3536 12.2737 11.3086 12.2737 12.4863C12.2737 13.6639 13.3318 14.6189 14.6376 14.6189C15.9426 14.6189 17 13.6639 17 12.4863Z" fill="black" stroke="black" stroke-width="1.5" stroke-linecap="round" stroke-linejoin="round"/>
</svg>
