<svg width="43" height="42" viewBox="0 0 43 42" fill="none" xmlns="http://www.w3.org/2000/svg">
<path d="M39.783 21.1315C39.783 19.6402 39.6595 18.5519 39.3923 17.4234H22.0156V24.1544H32.2153C32.0098 25.8271 30.8993 28.3462 28.4316 30.039L28.397 30.2643L33.8912 34.4355L34.2718 34.4727C37.7677 31.3087 39.783 26.6533 39.783 21.1315Z" fill="#4285F4"/>
<path d="M22.015 38.8662C27.012 38.8662 31.207 37.2539 34.2711 34.4729L28.4309 30.0391C26.8681 31.1072 24.7705 31.8529 22.015 31.8529C17.1208 31.8529 12.9669 28.6889 11.4861 24.3157L11.2691 24.3338L5.55616 28.6667L5.48145 28.8702C8.52489 34.7952 14.7764 38.8662 22.015 38.8662Z" fill="#34A853"/>
<path d="M11.4866 24.3158C11.0959 23.1873 10.8698 21.978 10.8698 20.7286C10.8698 19.479 11.0959 18.2699 11.466 17.1414L11.4557 16.901L5.67118 12.4985L5.48192 12.5868C4.22756 15.0454 3.50781 17.8064 3.50781 20.7286C3.50781 23.6507 4.22756 26.4116 5.48192 28.8703L11.4866 24.3158Z" fill="#FBBC05"/>
<path d="M22.0151 9.60424C25.4904 9.60424 27.8346 11.0754 29.1714 12.3048L34.3946 7.30686C31.1867 4.38471 27.0121 2.59109 22.0151 2.59109C14.7764 2.59109 8.52491 6.66194 5.48145 12.5868L11.4656 17.1414C12.9669 12.7683 17.1208 9.60424 22.0151 9.60424Z" fill="#EB4335"/>
</svg>
