<svg width="37" height="37" viewBox="0 0 37 37" fill="none" xmlns="http://www.w3.org/2000/svg">
<path d="M33.688 18.5C34.2906 18.1418 34.8097 17.6589 35.2106 17.0838C35.6115 16.5087 35.8849 15.8546 36.0125 15.1652C36.1401 14.4759 36.119 13.7673 35.9505 13.0867C35.7821 12.4062 35.4702 11.7696 35.0358 11.2193C34.6014 10.6691 34.0545 10.218 33.4316 9.89631C32.8087 9.57458 32.1243 9.38963 31.4242 9.35383C30.7241 9.31803 30.0244 9.43221 29.3719 9.68872C28.7195 9.94523 28.1294 10.3382 27.6411 10.8412V5.84374C27.6403 4.76798 27.287 3.72211 26.6353 2.86618C25.9837 2.01025 25.0695 1.39139 24.0328 1.10429C22.996 0.817186 21.8938 0.87766 20.8947 1.27646C19.8955 1.67525 19.0546 2.39041 18.5005 3.31249C18.1422 2.70989 17.6594 2.19078 17.0843 1.78989C16.5092 1.38901 15.855 1.11561 15.1657 0.987994C14.4764 0.860381 13.7677 0.881499 13.0872 1.04993C12.4067 1.21837 11.77 1.53024 11.2198 1.96466C10.6696 2.39908 10.2185 2.94602 9.8968 3.56889C9.57507 4.19175 9.39012 4.87616 9.35432 5.57629C9.31852 6.27642 9.4327 6.97612 9.68921 7.62855C9.94572 8.28098 10.3387 8.87109 10.8417 9.35937H5.84423C4.76847 9.36022 3.7226 9.7135 2.86667 10.3652C2.01074 11.0168 1.39187 11.9309 1.10477 12.9677C0.817674 14.0044 0.878148 15.1067 1.27694 16.1058C1.67574 17.1049 2.39089 17.9459 3.31298 18.5C2.71038 18.8582 2.19126 19.3411 1.79038 19.9162C1.3895 20.4913 1.1161 21.1454 0.988482 21.8348C0.860869 22.5241 0.881987 23.2327 1.05042 23.9132C1.21886 24.5938 1.53072 25.2304 1.96514 25.7807C2.39956 26.3309 2.94651 26.782 3.56938 27.1037C4.19224 27.4254 4.87665 27.6104 5.57678 27.6462C6.27691 27.682 6.97661 27.5678 7.62904 27.3113C8.28147 27.0548 8.87158 26.6618 9.35986 26.1588V31.1562C9.36033 32.2322 9.71333 33.2783 10.3648 34.1345C11.0164 34.9907 11.9305 35.6099 12.9673 35.8972C14.0042 36.1846 15.1066 36.1242 16.1059 35.7255C17.1052 35.3267 17.9463 34.6115 18.5005 33.6893C18.8591 34.2912 19.3422 34.8096 19.9173 35.2099C20.4925 35.6101 21.1464 35.8829 21.8355 36.0101C22.5246 36.1373 23.2328 36.1158 23.9129 35.9472C24.5931 35.7786 25.2293 35.4668 25.7792 35.0325C26.3291 34.5982 26.7799 34.0515 27.1015 33.429C27.4231 32.8065 27.6081 32.1224 27.6441 31.4227C27.6801 30.7229 27.5662 30.0235 27.3102 29.3713C27.0541 28.719 26.6617 28.129 26.1593 27.6406H31.1567C32.2325 27.6398 33.2784 27.2865 34.1343 26.6348C34.9902 25.9832 35.6091 25.069 35.8962 24.0323C36.1833 22.9955 36.1228 21.8933 35.724 20.8942C35.3252 19.895 34.6101 19.0541 33.688 18.5ZM9.35986 22.7187C9.35986 23.4141 9.15367 24.0938 8.76737 24.6719C8.38107 25.2501 7.832 25.7007 7.1896 25.9668C6.54721 26.2328 5.84033 26.3025 5.15837 26.1668C4.4764 26.0312 3.84998 25.6963 3.35831 25.2047C2.86664 24.713 2.53181 24.0866 2.39616 23.4046C2.26051 22.7226 2.33013 22.0158 2.59622 21.3734C2.86231 20.731 3.31291 20.1819 3.89106 19.7956C4.4692 19.4093 5.14891 19.2031 5.84423 19.2031H9.35986V22.7187ZM17.7974 31.1562C17.7974 32.0886 17.427 32.9829 16.7677 33.6422C16.1083 34.3015 15.2141 34.6719 14.2817 34.6719C13.3493 34.6719 12.4551 34.3015 11.7958 33.6422C11.1365 32.9829 10.7661 32.0886 10.7661 31.1562V22.7187C10.7661 21.7863 11.1365 20.8921 11.7958 20.2328C12.4551 19.5735 13.3493 19.2031 14.2817 19.2031H17.7974V31.1562ZM17.7974 17.7969H5.84423C4.91183 17.7969 4.01762 17.4265 3.35831 16.7672C2.699 16.1079 2.32861 15.2136 2.32861 14.2812C2.32861 13.3488 2.699 12.4546 3.35831 11.7953C4.01762 11.136 4.91183 10.7656 5.84423 10.7656H14.2817C15.2141 10.7656 16.1083 11.136 16.7677 11.7953C17.427 12.4546 17.7974 13.3488 17.7974 14.2812V17.7969ZM17.7974 9.35937H14.2817C13.5864 9.35937 12.9067 9.15318 12.3286 8.76688C11.7504 8.38058 11.2998 7.83151 11.0337 7.18912C10.7676 6.54672 10.698 5.83984 10.8337 5.15788C10.9693 4.47591 11.3041 3.84949 11.7958 3.35782C12.2875 2.86615 12.9139 2.53132 13.5959 2.39567C14.2778 2.26002 14.9847 2.32964 15.6271 2.59573C16.2695 2.86182 16.8186 3.31243 17.2049 3.89057C17.5912 4.46871 17.7974 5.14842 17.7974 5.84374V9.35937ZM27.6411 14.2812C27.6411 13.5859 27.8473 12.9062 28.2336 12.3281C28.6199 11.7499 29.169 11.2993 29.8114 11.0332C30.4538 10.7671 31.1606 10.6975 31.8426 10.8332C32.5246 10.9688 33.151 11.3037 33.6427 11.7953C34.1343 12.287 34.4692 12.9134 34.6048 13.5954C34.7405 14.2773 34.6708 14.9842 34.4047 15.6266C34.1387 16.269 33.6881 16.8181 33.1099 17.2044C32.5318 17.5907 31.8521 17.7969 31.1567 17.7969H27.6411V14.2812ZM19.2036 5.84374C19.2036 4.91134 19.574 4.01713 20.2333 3.35782C20.8926 2.69851 21.7868 2.32812 22.7192 2.32812C23.6516 2.32812 24.5458 2.69851 25.2052 3.35782C25.8645 4.01713 26.2349 4.91134 26.2349 5.84374V14.2812C26.2349 15.2136 25.8645 16.1079 25.2052 16.7672C24.5458 17.4265 23.6516 17.7969 22.7192 17.7969H19.2036V5.84374ZM26.2349 31.1562C26.2349 32.0886 25.8645 32.9829 25.2052 33.6422C24.5458 34.3015 23.6516 34.6719 22.7192 34.6719C21.7868 34.6719 20.8926 34.3015 20.2333 33.6422C19.574 32.9829 19.2036 32.0886 19.2036 31.1562V27.6406H22.7192C23.6516 27.6406 24.5458 28.011 25.2052 28.6703C25.8645 29.3296 26.2349 30.2238 26.2349 31.1562ZM31.1567 26.2344H22.7192C21.7868 26.2344 20.8926 25.864 20.2333 25.2047C19.574 24.5454 19.2036 23.6511 19.2036 22.7187V19.2031H31.1567C32.0891 19.2031 32.9833 19.5735 33.6427 20.2328C34.302 20.8921 34.6724 21.7863 34.6724 22.7187C34.6724 23.6511 34.302 24.5454 33.6427 25.2047C32.9833 25.864 32.0891 26.2344 31.1567 26.2344Z" fill="black"/>
</svg>
